<svg width="89" height="73" viewBox="0 0 89 73" fill="none" xmlns="http://www.w3.org/2000/svg">
<g clip-path="url(#clip0_24_595)">
<path d="M87.6075 50.2844C86.8322 50.1025 86.0664 50.5812 85.8749 51.347C85.8462 51.4427 84.2954 57.1096 76.0439 62.1926L66.8065 28.124H70.5589C71.1237 28.124 71.6789 28.1528 72.2436 28.1815C73.6125 28.2581 78.169 28.0858 79.6911 22.6581C81.1748 17.3454 76.6183 14.1577 74.0433 13.2388L66.481 10.233C66.414 10.2043 66.3661 10.1373 66.3661 10.0511V3.83858C66.3661 1.72305 64.6431 0 62.5275 0H57.4637C56.2001 0 55.0035 0.497771 54.1037 1.39759L48.8197 6.68162C47.4508 8.05048 46.7042 9.85969 46.7042 11.7933V24.6205H26.3051C26.085 24.6205 25.8648 24.6109 25.6542 24.5918C24.8214 24.5248 24.0269 24.5056 23.2419 24.5248H23.2228C9.17034 24.8598 2.10582 38.1752 1.7995 38.7783C1.43575 39.4771 1.71335 40.3481 2.41214 40.7119C3.12051 41.0757 3.98204 40.7981 4.34579 40.0993C4.4128 39.9748 10.2042 29.1292 21.1838 27.5784L11.1423 62.7574C4.14477 57.7223 2.92906 51.8926 2.84291 51.4331C2.70889 50.6482 1.96223 50.1313 1.18686 50.2653C0.411487 50.3993 -0.115001 51.146 0.0190141 51.9213C0.172174 52.8116 4.08734 73 40.3959 73C41.5925 73 42.8177 72.9809 44.0909 72.933C83.6732 71.5258 88.4786 52.802 88.6701 52.0075C88.8424 51.2417 88.3733 50.4759 87.6075 50.2844ZM33.3409 27.4923H46.8286C46.9722 29.828 46.9722 34.9301 44.5025 37.7731C43.3346 39.1133 41.7552 39.7642 39.6779 39.7642C37.6007 39.7642 36.1265 39.1324 35.0544 37.8306C32.7187 34.9875 33.0538 29.7897 33.3409 27.4923ZM43.9856 70.0612C37.8209 70.2814 32.5943 69.9272 28.1335 69.1901C28.9472 65.2846 32.2784 54.2187 44.043 54.123H44.2057C55.7885 54.123 59.1484 64.4805 59.9813 68.2233C55.4535 69.171 50.179 69.8411 43.9856 70.0612ZM62.7477 67.582C61.7043 63.169 57.6073 51.1077 44.0239 51.2512C30.2969 51.3661 26.3051 64.1933 25.3287 68.6637C20.4851 67.6107 16.6656 66.0982 13.6694 64.3752L24.2183 27.387C24.6108 27.3965 25.0129 27.4157 25.4149 27.454C25.7116 27.4731 26.0084 27.4923 26.3051 27.4923H30.45C30.1246 30.3544 29.9236 36.1075 32.8336 39.6494C34.4609 41.6309 36.7583 42.636 39.6779 42.636C42.5976 42.636 44.9524 41.6309 46.6755 39.6494C50.6193 35.1024 49.7004 26.9466 49.5759 25.9607V11.7933C49.5759 10.6255 50.0258 9.53423 50.8491 8.71099L56.1331 3.42696C56.4873 3.07278 56.9659 2.87175 57.4637 2.87175H62.5275C63.0636 2.87175 63.4944 3.31209 63.4944 3.83858V10.0511C63.4944 11.3147 64.2506 12.4347 65.428 12.9037L73.0286 15.9191C73.2296 15.9957 78.0637 17.7857 76.9246 21.8828C76.0822 24.8885 74.005 25.4055 72.4064 25.3193C71.7937 25.281 71.1715 25.2523 70.5589 25.2523H64.9302C64.4803 25.2523 64.0591 25.4629 63.7911 25.8171C63.5135 26.1713 63.4274 26.6307 63.5422 27.0615L73.4689 63.6476C70.5972 65.1218 67.0553 66.4811 62.7477 67.582Z" fill="#444545"/>
<path d="M76.9247 21.8827C76.0824 24.8885 74.0051 25.4054 72.4065 25.3193C71.7939 25.281 71.1717 25.2522 70.559 25.2522H64.9304C64.4805 25.2522 64.0593 25.4628 63.7912 25.817C63.5136 26.1712 63.4275 26.6307 63.5424 27.0615L73.4691 63.6476C70.5973 65.1218 67.0555 66.4811 62.7478 67.5819C61.7044 63.169 57.6074 51.1076 44.024 51.2512C30.297 51.3661 26.3053 64.1932 25.3289 68.6636C20.4852 67.6106 16.6658 66.0982 13.6696 64.3751L24.2185 27.3869C24.6109 27.3965 25.013 27.4156 25.415 27.4539C25.7118 27.4731 26.0085 27.4922 26.3053 27.4922H30.4502C30.1247 30.3544 29.9237 36.1075 32.8337 39.6493C34.4611 41.6308 36.7585 42.6359 39.6781 42.6359C42.5977 42.6359 44.9525 41.6308 46.6756 39.6493C50.6195 35.1024 49.7005 26.9466 49.5761 25.9606V11.7933C49.5761 10.6254 50.026 9.53418 50.8492 8.71094L56.1332 3.42691C56.4874 3.07273 56.966 2.8717 57.4638 2.8717H62.5277C63.0637 2.8717 63.4945 3.31204 63.4945 3.83853V10.0511C63.4945 11.3147 64.2507 12.4346 65.4281 12.9037L73.0287 15.919C73.2297 15.9956 78.0639 17.7857 76.9247 21.8827Z" fill="#C9C9C9"/>
<path d="M44.5027 37.7732C43.3348 39.1133 41.7554 39.7643 39.6781 39.7643C37.6009 39.7643 36.1267 39.1325 35.0546 37.8306C32.7189 34.9876 33.0539 29.7897 33.3411 27.4923H46.8288C46.9724 29.828 46.9724 34.9302 44.5027 37.7732Z" fill="#C7E4C8"/>
</g>
<defs>
<clipPath id="clip0_24_595">
<rect width="88.7085" height="73" fill="white"/>
</clipPath>
</defs>
</svg>
