<svg width="63" height="63" viewBox="0 0 63 63" fill="none" xmlns="http://www.w3.org/2000/svg">
<g clip-path="url(#clip0_67_1030)">
<path d="M62.6347 24.5919C62.0546 0 41.094 0 31.0165 0C20.9391 0 0 0 0 25.301C0 48.3136 23.5928 62.205 24.5919 62.7851C24.839 62.9355 25.1183 63 25.3977 63C25.677 63 25.9563 62.9355 26.2034 62.7851C26.6976 62.5058 27.0092 61.9794 27.0092 61.3992L27.0737 50.2474C35.7329 51.5904 46.9599 50.6772 54.5663 44.3063C60.0348 39.7188 62.8281 32.9074 62.6347 24.5919ZM52.5036 41.8353C45.198 47.9591 33.9173 48.3888 25.7952 46.7451C25.3225 46.6484 24.8283 46.7665 24.463 47.0781C24.087 47.3789 23.8721 47.8302 23.8614 48.3136L23.8076 58.4233C17.9094 54.2978 3.22306 42.3187 3.22306 25.301C3.22306 4.93128 17.5657 3.22306 31.0165 3.22306C44.4674 3.22306 58.9497 4.87756 59.4117 24.6671C59.5836 32.0694 57.263 37.8494 52.5036 41.8353Z" fill="#444545"/>
<path d="M59.4118 24.6672C59.5837 32.0695 57.2631 37.8495 52.5037 41.8354C45.1981 47.9592 33.9174 48.3889 25.7953 46.7451C25.3226 46.6485 24.8284 46.7666 24.4631 47.0782C24.0871 47.379 23.8722 47.8302 23.8614 48.3137L23.8077 58.4234C17.9095 54.2978 3.22314 42.3188 3.22314 25.3011C3.22314 4.93136 17.5657 3.22314 31.0166 3.22314C44.4675 3.22314 58.9498 4.87765 59.4118 24.6672Z" fill="#D8EFF1"/>
<path d="M17.0497 28.234C18.8713 28.234 20.348 26.7573 20.348 24.9357C20.348 23.1141 18.8713 21.6375 17.0497 21.6375C15.2281 21.6375 13.7515 23.1141 13.7515 24.9357C13.7515 26.7573 15.2281 28.234 17.0497 28.234Z" fill="#444545"/>
<path d="M31.3173 28.234C33.1389 28.234 34.6156 26.7573 34.6156 24.9357C34.6156 23.1141 33.1389 21.6375 31.3173 21.6375C29.4957 21.6375 28.019 23.1141 28.019 24.9357C28.019 26.7573 29.4957 28.234 31.3173 28.234Z" fill="#444545"/>
<path d="M45.5956 28.234C47.4172 28.234 48.8939 26.7573 48.8939 24.9357C48.8939 23.1141 47.4172 21.6375 45.5956 21.6375C43.774 21.6375 42.2974 23.1141 42.2974 24.9357C42.2974 26.7573 43.774 28.234 45.5956 28.234Z" fill="#444545"/>
</g>
<defs>
<clipPath id="clip0_67_1030">
<rect width="62.6455" height="63" fill="white"/>
</clipPath>
</defs>
</svg>
