<svg width="63" height="73" viewBox="0 0 63 73" fill="none" xmlns="http://www.w3.org/2000/svg">
<g clip-path="url(#clip0_67_1005)">
<path d="M47.5163 23.7715C47.5163 35.0218 39.918 44.1852 30.594 44.1852C21.27 44.1852 13.6851 35.0218 13.6851 23.7715C13.6851 22.9153 13.7386 22.0859 13.8188 21.2565C17.7919 22.5274 26.8483 24.0123 37.0686 16.2534C38.7541 18.6613 42.3928 22.8484 47.5029 23.437C47.5029 23.5574 47.5163 23.6511 47.5163 23.7715Z" fill="#FAF7EF"/>
<path d="M1.67236 73.0001H59.0878L56.7601 58.78L43.9313 50.767L38.6606 49.5764L31.2897 66.2579L29.3768 63.7029L23.5443 49.5764H16.6683L8.33427 55.3955L3.43817 63.7029L1.67236 72.3312V73.0001Z" fill="#B9E3E5"/>
<path d="M36.6404 33.8446C35.8378 33.4299 34.8211 33.751 34.393 34.5536C34.3529 34.6339 33.363 36.4265 30.5404 36.4265C27.7178 36.4265 26.7546 34.674 26.6877 34.5536C26.273 33.7376 25.2831 33.4032 24.4671 33.8045C23.6377 34.2058 23.2899 35.2091 23.7046 36.0385C23.7848 36.1857 25.5774 39.7574 30.5404 39.7574C35.5034 39.7574 37.3093 36.1857 37.3762 36.0385C37.7775 35.2225 37.4431 34.246 36.6271 33.8313L36.6404 33.8446Z" fill="#444545"/>
<path d="M61.8567 41.8844C59.4488 40.1988 59.6628 36.3462 59.7163 35.6372C63.6626 22.2063 61.5223 16.6949 57.0944 12.5613C53.8303 9.49789 49.67 10.0597 47.4895 10.6617C43.8508 4.24061 37.6438 0 30.5939 0C19.4239 0 10.3407 10.6617 10.3407 23.7715C10.3407 33.4834 15.3304 41.8442 22.4739 45.523V47.971H22.4338L21.698 48.0914C14.6615 49.2285 0 51.5963 0 71.3278C0 72.2509 0.74913 73 1.67216 73C2.5952 73 3.34433 72.2509 3.34433 71.3278C3.34433 56.1981 12.8288 53.0946 19.8921 51.797L14.6749 60.0641C14.4341 60.4521 14.3539 60.9337 14.4743 61.3885C14.5946 61.8299 14.8889 62.2179 15.3036 62.4319L30.206 70.3647C30.42 70.4851 30.6742 70.5519 30.9417 70.5653H31.0755C31.3966 70.5519 31.6909 70.4449 31.945 70.271L46.5798 60.2247C46.9811 59.9437 47.2353 59.5157 47.3022 59.0475C47.3557 58.5659 47.2085 58.0977 46.8875 57.7365L41.8309 51.9842C48.7603 53.4022 57.4154 56.8803 57.4154 71.3278C57.4154 72.2509 58.1646 73 59.0876 73C60.0106 73 60.7598 72.2509 60.7598 71.3278C60.7598 51.5963 46.0982 49.2285 39.0618 48.0914L38.6872 48.0379L38.4063 45.6835C41.3091 44.2655 43.8508 42.0583 45.8842 39.3159C50.2184 44.5866 54.2316 45.9109 57.1613 45.9109C60.0909 45.9109 61.8433 44.6401 61.8834 44.6133C62.3115 44.2923 62.5791 43.784 62.5657 43.2489C62.5657 42.7004 62.2982 42.2054 61.8567 41.8844ZM30.5939 3.34433C38.8611 3.34433 45.737 10.5279 47.2085 19.9991C42.2589 18.9289 38.9815 13.0429 38.9414 12.9894C38.7139 12.5479 38.2859 12.2269 37.7909 12.1332C37.2826 12.0396 36.7876 12.1734 36.3997 12.4944C26.3132 20.989 17.4708 19.0225 14.394 17.9256C16.4809 9.51127 22.9421 3.34433 30.5939 3.34433ZM18.4607 60.3317L23.1294 52.9207L27.8516 65.3214L18.4607 60.3317ZM30.9016 63.9569L25.7915 50.486C25.7915 50.486 25.8182 50.4191 25.8182 50.3656V46.834C27.3432 47.2754 28.9485 47.5296 30.5939 47.5296C32.2393 47.5296 33.7108 47.3022 35.1823 46.8875L35.5703 50.1917L30.9016 63.9569ZM43.1418 58.5257L34.1924 64.6659L38.1789 52.8939L43.1418 58.5257ZM30.5939 44.1853C21.2699 44.1853 13.685 35.0218 13.685 23.7715C13.685 22.9153 13.7385 22.0859 13.8188 21.2566C17.7918 22.5274 26.8483 24.0123 37.0685 16.2534C38.7541 18.6614 42.3927 22.8485 47.5028 23.4371C47.5028 23.5574 47.5162 23.6511 47.5162 23.7715C47.5162 35.0218 39.9179 44.1853 30.5939 44.1853ZM57.9505 42.5532C55.9172 42.8074 52.4792 42.1385 48.3456 37.0418C48.1583 36.8144 47.9042 36.6672 47.6366 36.5602C49.67 32.8681 50.8605 28.4803 50.8605 23.7715C50.8605 20.1864 50.1649 16.8019 48.9476 13.7519C50.5261 13.4174 52.9875 13.2837 54.8202 14.996C57.79 17.7918 60.3718 21.6177 56.4656 34.8345C56.4523 34.9282 56.4255 35.0084 56.4121 35.1021C56.3854 35.3161 55.9038 39.3962 57.9505 42.5532Z" fill="#444545"/>
<path d="M35.5703 50.1917L30.9016 63.9569L25.7915 50.486C25.7915 50.486 25.8183 50.4191 25.8183 50.3656V46.834C27.3433 47.2754 28.9485 47.5296 30.594 47.5296C32.2394 47.5296 33.7109 47.3022 35.1824 46.8875L35.5703 50.1917Z" fill="#FAF7EF"/>
<path d="M57.9506 42.5532C55.9173 42.8074 52.4793 42.1385 48.3457 37.0417C48.1584 36.8143 47.9043 36.6672 47.6367 36.5602C49.6701 32.868 50.8607 28.4803 50.8607 23.7715C50.8607 20.1863 50.165 16.8019 48.9477 13.7518C50.5262 13.4174 52.9876 13.2836 54.8203 14.9959C57.7901 17.7918 60.3719 21.6177 56.4657 34.8345C56.4524 34.9281 56.4256 35.0084 56.4122 35.102C56.3855 35.3161 55.9039 39.3962 57.9506 42.5532Z" fill="#C9C9C9"/>
<path d="M47.2086 19.999C42.259 18.9288 38.9815 13.0428 38.9414 12.9893C38.714 12.5478 38.2859 12.2268 37.791 12.1331C37.2826 12.0395 36.7877 12.1733 36.3997 12.4943C26.3132 20.9889 17.4708 19.0224 14.394 17.9255C16.4809 9.51118 22.9421 3.34424 30.594 3.34424C38.8612 3.34424 45.7371 10.5279 47.2086 19.999Z" fill="#C9C9C9"/>
<path d="M43.1418 58.5256L34.1924 64.6658L38.1788 52.8938L43.1418 58.5256Z" fill="#F4EEBD"/>
<path d="M27.8518 65.3214L18.4609 60.3317L23.1296 52.9207L27.8518 65.3214Z" fill="#F4EEBD"/>
</g>
<defs>
<clipPath id="clip0_67_1005">
<rect width="62.5657" height="73" fill="white"/>
</clipPath>
</defs>
</svg>
