<svg width="83" height="70" viewBox="0 0 83 70" fill="none" xmlns="http://www.w3.org/2000/svg">
<g clip-path="url(#clip0_24_600)">
<path d="M82.1485 40.4708C81.8963 40.2457 63.3359 22.7299 63.3359 22.7299C61.7149 21.19 59.1844 21.19 57.5724 22.7299L40.9391 38.6067V19.3528C40.9391 18.2001 40.4619 17.0924 39.6153 16.309L23.3513 1.11663C21.7574 -0.369281 19.2538 -0.369281 17.6598 1.11663L1.38685 16.309C0.549337 17.0924 0.0720443 18.1911 0.0630387 19.3348L0 30.7538V65.8304C0 68.1358 1.86415 69.9999 4.16956 69.9999H9.21266C11.5181 69.9999 13.3912 68.1358 13.3912 65.8304V58.8421C13.3912 58.0226 14.0486 57.3652 14.8591 57.3652H26.071C26.8905 57.3652 27.5479 58.0226 27.5479 58.8421V65.8304C27.5479 68.1358 29.4121 69.9999 31.7175 69.9999H48.4858C50.3409 69.9999 51.9979 68.7302 52.5203 66.875C53.2767 64.2094 55.1949 61.976 57.8515 61.1655C62.5074 59.7426 67.0012 62.2912 68.307 66.6049C68.334 66.7039 68.37 66.812 68.397 66.92C68.8743 68.7302 70.5313 69.9999 72.4225 69.9999H78.4112C80.7166 69.9999 82.5897 68.1358 82.5897 65.8304V41.2273C82.5897 40.9031 82.3736 40.6689 82.1485 40.4708ZM5.42133 16.2369L19.497 3.08884C20.0643 2.56652 20.9469 2.56652 21.5052 3.08884L35.5809 16.2369C35.887 16.5251 35.6889 17.0384 35.2657 17.0384H5.74553C5.32227 17.0384 5.11514 16.5251 5.42133 16.2369ZM2.70166 32.1047H9.78901C10.2843 32.1047 10.6896 32.5099 10.6896 33.0052V41.1372C10.6896 41.6325 10.2843 42.0378 9.78901 42.0378H2.70166V32.1047ZM10.6896 58.8421V65.8304C10.6896 66.6409 10.0322 67.2983 9.21266 67.2983H4.16956C3.35906 67.2983 2.70166 66.6409 2.70166 65.8304V57.3652H10.9687C10.7976 57.8245 10.6896 58.3198 10.6896 58.8421ZM38.2375 67.2983H31.7175C30.907 67.2983 30.2496 66.6409 30.2496 65.8304V58.8421C30.2496 58.3198 30.1415 57.8245 29.9704 57.3652H37.3369C37.8322 57.3652 38.2375 57.7704 38.2375 58.2657V67.2983ZM38.2375 53.763C38.2375 54.2583 37.8322 54.6635 37.3369 54.6635H2.70166V44.7394H37.3369C37.8322 44.7394 38.2375 45.1447 38.2375 45.64V53.763ZM13.3912 41.1372V33.0052C13.3912 32.5099 13.7965 32.1047 14.2918 32.1047H26.6474C27.1427 32.1047 27.5479 32.5099 27.5479 33.0052V41.1372C27.5479 41.6325 27.1427 42.0378 26.6474 42.0378H14.2918C13.7965 42.0378 13.3912 41.6325 13.3912 41.1372ZM38.2375 42.0378H31.1501C30.6548 42.0378 30.2496 41.6325 30.2496 41.1372V33.0052C30.2496 32.5099 30.6548 32.1047 31.1501 32.1047H38.2375V42.0378ZM38.2375 29.403H2.71066L2.7647 20.2084C2.7647 19.9472 2.97183 19.7401 3.22398 19.7401H37.7692C38.0304 19.7401 38.2375 19.9562 38.2375 20.2084V29.403ZM59.1033 58.1667C54.7626 58.707 51.0884 61.8229 49.9177 66.1366C49.7376 66.83 49.1522 67.2983 48.4858 67.2983H40.9391V43.4967C40.9391 43.2445 41.1373 43.0374 41.3894 43.0374H58.2027C58.6981 43.0374 59.1033 43.4426 59.1033 43.9379V58.1667ZM44.2082 40.3267C43.7939 40.3267 43.5868 39.8134 43.893 39.5252L59.4365 24.6841C60.0039 24.1438 60.8954 24.1438 61.4718 24.6841L77.0153 39.5252C77.3215 39.8134 77.1144 40.3267 76.6911 40.3267H44.2082ZM79.8881 65.8304C79.8881 66.6409 79.2307 67.2983 78.4112 67.2983H72.4225C71.7561 67.2983 71.1707 66.857 71.0086 66.2266C70.9726 66.0825 70.9276 65.9384 70.8825 65.8124C69.6128 61.6158 66.0556 58.68 61.805 58.1577V43.9379C61.805 43.4426 62.2102 43.0374 62.7055 43.0374H79.4288C79.6809 43.0374 79.8881 43.2445 79.8881 43.4967V65.8304Z" fill="#444545"/>
<path d="M79.888 43.4968V65.8305C79.888 66.641 79.2306 67.2984 78.4111 67.2984H72.4225C71.756 67.2984 71.1707 66.8571 71.0086 66.2267C70.9726 66.0826 70.9275 65.9385 70.8825 65.8125C69.6127 61.6159 66.0555 58.6801 61.8049 58.1578V43.938C61.8049 43.4427 62.2102 43.0375 62.7055 43.0375H79.4288C79.6809 43.0375 79.888 43.2446 79.888 43.4968Z" fill="#F7F7CE"/>
<path d="M59.1032 43.938V58.1668C54.7626 58.7071 51.0883 61.823 49.9176 66.1367C49.7375 66.8301 49.1521 67.2984 48.4857 67.2984H40.9391V43.4968C40.9391 43.2446 41.1372 43.0375 41.3894 43.0375H58.2027C58.698 43.0375 59.1032 43.4427 59.1032 43.938Z" fill="#F4C1C1"/>
<path d="M38.2375 58.2658V67.2983H31.7175C30.907 67.2983 30.2496 66.6409 30.2496 65.8304V58.8421C30.2496 58.3198 30.1416 57.8245 29.9705 57.3652H37.337C37.8323 57.3652 38.2375 57.7705 38.2375 58.2658Z" fill="#B9E3E5"/>
<path d="M10.9687 57.3652C10.7976 57.8245 10.6896 58.3198 10.6896 58.8421V65.8304C10.6896 66.6409 10.0322 67.2983 9.21266 67.2983H4.16956C3.35906 67.2983 2.70166 66.6409 2.70166 65.8304V57.3652H10.9687Z" fill="#C7E4C8"/>
<path d="M38.2375 45.6401V53.763C38.2375 54.2583 37.8322 54.6636 37.3369 54.6636H2.70166V44.7395H37.3369C37.8322 44.7395 38.2375 45.1448 38.2375 45.6401Z" fill="#F6D0E3"/>
<path d="M38.2375 32.1047V42.0378H31.1502C30.6549 42.0378 30.2496 41.6326 30.2496 41.1373V33.0053C30.2496 32.51 30.6549 32.1047 31.1502 32.1047H38.2375Z" fill="#B9E3E5"/>
<path d="M26.6474 32.1047H14.2918C13.7944 32.1047 13.3912 32.5079 13.3912 33.0053V41.1373C13.3912 41.6346 13.7944 42.0378 14.2918 42.0378H26.6474C27.1447 42.0378 27.5479 41.6346 27.5479 41.1373V33.0053C27.5479 32.5079 27.1447 32.1047 26.6474 32.1047Z" fill="#F7F7CE"/>
<path d="M38.2375 20.2084V29.403H2.71069L2.76473 20.2084C2.76473 19.9472 2.97185 19.7401 3.22401 19.7401H37.7692C38.0304 19.7401 38.2375 19.9562 38.2375 20.2084Z" fill="#F4C1C1"/>
<path d="M10.6896 33.0053V41.1373C10.6896 41.6326 10.2843 42.0378 9.78901 42.0378H2.70166V32.1047H9.78901C10.2843 32.1047 10.6896 32.51 10.6896 33.0053Z" fill="#F6D0E3"/>
<path d="M76.6912 40.3268H44.2082C43.794 40.3268 43.5868 39.8135 43.893 39.5253L59.4366 24.6842C60.0039 24.1438 60.8955 24.1438 61.4718 24.6842L77.0154 39.5253C77.3215 39.8135 77.1144 40.3268 76.6912 40.3268Z" fill="#C7E4C8"/>
<path d="M35.2657 17.0385H5.74557C5.32231 17.0385 5.11519 16.5251 5.42137 16.237L19.497 3.08888C20.0644 2.56656 20.9469 2.56656 21.5053 3.08888L35.5809 16.237C35.8871 16.5251 35.689 17.0385 35.2657 17.0385Z" fill="#C7E4C8"/>
</g>
<defs>
<clipPath id="clip0_24_600">
<rect width="82.5897" height="70" fill="white"/>
</clipPath>
</defs>
</svg>
