<svg width="63" height="63" viewBox="0 0 63 63" fill="none" xmlns="http://www.w3.org/2000/svg">
<g clip-path="url(#clip0_24_624)">
<path d="M62.6347 24.5919C62.0653 0 41.094 0 31.0165 0C20.9391 0 0 0 0 25.3117C0 48.3136 23.5928 62.205 24.6027 62.7851C24.8498 62.9355 25.1291 63 25.4084 63C25.6878 63 25.9563 62.9355 26.2034 62.7959C26.7084 62.5058 27.02 61.9794 27.02 61.3992L27.0844 50.2474C35.7437 51.5904 46.9707 50.6879 54.5771 44.3063C60.0455 39.7295 62.8388 32.9074 62.6347 24.5919ZM52.5036 41.8353C45.198 47.9591 33.9173 48.3888 25.8059 46.7451C25.3225 46.6484 24.839 46.7773 24.463 47.0781C24.087 47.3789 23.8721 47.8409 23.8721 48.3244L23.8076 58.4233C17.9202 54.3085 3.22306 42.3187 3.22306 25.3117C3.22306 4.93128 17.5764 3.22306 31.0165 3.22306C44.4567 3.22306 58.9497 4.87756 59.4117 24.6671C59.5943 32.0802 57.263 37.8494 52.5036 41.8353Z" fill="#444545"/>
<path d="M59.4118 24.6671C59.5944 32.0801 57.2631 37.8494 52.5037 41.8352C45.1981 47.959 33.9174 48.3888 25.806 46.745C25.3226 46.6483 24.8391 46.7773 24.4631 47.0781C24.0871 47.3789 23.8722 47.8409 23.8722 48.3243L23.8077 58.4232C17.9203 54.3085 3.22314 42.3187 3.22314 25.3117C3.22314 4.93124 17.5765 3.22302 31.0166 3.22302C44.4568 3.22302 58.9498 4.87752 59.4118 24.6671Z" fill="#E2F1E2"/>
<path d="M17.05 28.234C18.8715 28.234 20.3482 26.7573 20.3482 24.9357C20.3482 23.1141 18.8715 21.6375 17.05 21.6375C15.2284 21.6375 13.7517 23.1141 13.7517 24.9357C13.7517 26.7573 15.2284 28.234 17.05 28.234Z" fill="#444545"/>
<path d="M31.328 28.234C33.1496 28.234 34.6263 26.7573 34.6263 24.9357C34.6263 23.1141 33.1496 21.6375 31.328 21.6375C29.5065 21.6375 28.0298 23.1141 28.0298 24.9357C28.0298 26.7573 29.5065 28.234 31.328 28.234Z" fill="#444545"/>
<path d="M45.5954 28.234C47.417 28.234 48.8936 26.7573 48.8936 24.9357C48.8936 23.1141 47.417 21.6375 45.5954 21.6375C43.7738 21.6375 42.2971 23.1141 42.2971 24.9357C42.2971 26.7573 43.7738 28.234 45.5954 28.234Z" fill="#444545"/>
</g>
<defs>
<clipPath id="clip0_24_624">
<rect width="62.6455" height="63" fill="white"/>
</clipPath>
</defs>
</svg>
