<svg width="73" height="73" viewBox="0 0 73 73" fill="none" xmlns="http://www.w3.org/2000/svg">
<g clip-path="url(#clip0_67_997)">
<path d="M71.2323 70.0925H67.313V60.7887C67.313 59.9862 66.6618 59.335 65.8593 59.335H43.3209C43.3209 59.335 43.2046 59.335 43.158 59.3466C43.0883 59.3466 38.0526 59.9979 35.494 64.9172C32.9355 59.9979 27.8998 59.3466 27.8416 59.3466C27.7835 59.335 27.7253 59.335 27.6788 59.335H5.12872C4.32627 59.335 3.675 59.9862 3.675 60.7887V70.0925H1.45372C0.651267 70.0925 0 70.7438 0 71.5462C0 72.3487 0.651267 72.9999 1.45372 72.9999H71.2323C72.0347 72.9999 72.686 72.3603 72.686 71.5462C72.686 70.7321 72.0347 70.0925 71.2323 70.0925ZM6.58244 70.0925V62.2424H27.5742C28.2719 62.3354 33.3425 63.3123 33.9705 70.0925H6.58244ZM64.4056 70.0925H37.0175C37.6572 63.3705 42.751 62.3471 43.4139 62.2424H64.4056V70.0925Z" fill="#444545"/>
<path d="M64.4057 62.2424V70.0925H37.0176C37.6572 63.3705 42.7511 62.3471 43.4139 62.2424H64.4057Z" fill="#C9C9C9"/>
<path d="M33.9706 70.0925H6.58252V62.2424H27.5742C28.272 62.3355 33.3426 63.3124 33.9706 70.0925Z" fill="#C9C9C9"/>
<path d="M55.2765 20.3172C55.2765 9.11773 46.1587 0 34.9593 0C23.7598 0 14.6421 9.11773 14.6421 20.3172C14.6421 27.5974 18.5613 34.3543 24.8763 37.9712C24.8995 37.9712 24.9112 37.9828 24.9344 37.9944C24.9344 38.134 24.9112 38.2735 24.9112 38.4131V46.6121C24.9112 50.9732 28.4582 54.5087 32.8078 54.5087H38.0993C42.4488 54.5087 45.9959 50.9732 45.9959 46.6121V38.4131C45.9959 38.0758 45.9727 37.7386 45.9261 37.4129C51.7178 33.6914 55.2765 27.2369 55.2765 20.3172ZM38.0993 51.6012H32.8078C30.0748 51.6012 27.8419 49.38 27.8186 46.6586H43.0769C43.0652 49.38 40.8323 51.6012 38.0993 51.6012ZM43.0885 43.7512H27.8186V38.5875H43.0885V43.7512ZM43.5886 35.4475C43.5886 35.4475 43.542 35.4824 43.5072 35.5057L43.2978 35.6801H36.413V26.7601H39.2507C40.0531 26.7601 40.7044 26.1088 40.7044 25.3064C40.7044 24.5039 40.0531 23.8526 39.2507 23.8526H31.5401C30.7377 23.8526 30.0864 24.4923 30.0864 25.3064C30.0864 26.1204 30.7377 26.7601 31.5401 26.7601H33.5056V35.6801H26.5975C26.5161 35.5987 26.4347 35.5057 26.3184 35.4475C20.9105 32.3424 17.5495 26.5507 17.5495 20.3172C17.5495 10.7226 25.3531 2.90744 34.9593 2.90744C44.5655 2.90744 52.369 10.7226 52.369 20.3172C52.369 26.5507 48.9964 32.3424 43.5886 35.4475Z" fill="#444545"/>
<path d="M43.0766 46.6587C43.065 49.3801 40.8321 51.6013 38.0991 51.6013H32.8075C30.0745 51.6013 27.8416 49.3801 27.8184 46.6587H43.0766Z" fill="#B9E3E5"/>
<path d="M43.0882 38.5876H27.8184V43.7513H43.0882V38.5876Z" fill="#B9E3E5"/>
<path d="M52.3688 20.3172C52.3688 26.5508 48.9962 32.3424 43.5883 35.4475C43.5535 35.4475 43.5418 35.4824 43.5069 35.5057L43.2976 35.6801H36.4128V26.7601H39.2504C40.0529 26.7601 40.7042 26.1088 40.7042 25.3064C40.7042 24.5039 40.0529 23.8527 39.2504 23.8527H31.5399C30.7375 23.8527 30.0862 24.4923 30.0862 25.3064C30.0862 26.1205 30.7375 26.7601 31.5399 26.7601H33.5053V35.6801H26.5973C26.5159 35.5987 26.4345 35.5057 26.3182 35.4475C20.9103 32.3424 17.5493 26.5508 17.5493 20.3172C17.5493 10.7227 25.3529 2.90747 34.9591 2.90747C44.5652 2.90747 52.3688 10.7227 52.3688 20.3172Z" fill="#F4EEBD"/>
</g>
<defs>
<clipPath id="clip0_67_997">
<rect width="72.686" height="73" fill="white"/>
</clipPath>
</defs>
</svg>
