<svg width="80" height="80" viewBox="0 0 80 80" fill="none" xmlns="http://www.w3.org/2000/svg">
<g clip-path="url(#clip0_67_1015)">
<path d="M46.9508 0.100756C31.9396 1.2891 19.8992 13.677 19.1032 28.7106C18.6436 37.2532 21.7378 45.0783 27.0292 50.8631L21.9283 55.8967C20.8969 55.2801 19.7198 54.9438 18.4866 54.9326H18.4418C16.6593 54.9326 14.944 55.6389 13.666 56.8945L1.02027 69.3833C0.392467 70.0111 0.0337228 70.8631 0.0337228 71.7487L9.05317e-05 77.6232C-0.0111202 78.9124 1.02027 79.955 2.30951 79.9662L8.18395 79.9999H8.20637C9.09202 79.9999 9.93283 79.6523 10.5606 79.0357L23.0943 66.6478C24.0472 65.7061 24.7647 64.5402 25.0561 63.2398C25.4485 61.4685 25.1458 59.742 24.2938 58.2846L29.4396 53.2061C35.5606 58.5761 43.8454 61.5357 52.8028 60.5604C66.6144 59.0582 77.814 48.094 79.5517 34.316C81.9956 14.9774 66.1324 -1.43512 46.9508 0.100756ZM20.7512 64.2263L8.50906 76.3339C8.31848 76.5245 8.04942 76.6366 7.78036 76.6366L3.82296 76.6142C3.56511 76.6142 3.36332 76.4012 3.36332 76.1546L3.38574 72.2084C3.38574 71.9393 3.49785 71.6703 3.69964 71.4797L16.0427 59.2712C17.5449 57.7913 20.0786 57.9819 21.3117 59.8317C22.231 61.2106 21.9283 63.0716 20.7512 64.2263ZM76.3566 32.5671C75.314 45.6501 64.7086 56.2555 51.6369 57.2981C35.0113 58.6209 21.1772 44.7869 22.5001 28.1725C23.5427 15.0895 34.1481 4.49537 47.231 3.45277C63.8454 2.11869 77.6795 15.9528 76.3566 32.5671Z" fill="#444545"/>
<path d="M20.7512 64.2265L8.50902 76.3341C8.31844 76.5247 8.04938 76.6368 7.78032 76.6368L3.82292 76.6144C3.56508 76.6144 3.36328 76.4014 3.36328 76.1547L3.3857 72.2085C3.3857 71.9395 3.49781 71.6704 3.6996 71.4798L16.0427 59.2713C17.5449 57.7915 20.0785 57.9821 21.3117 59.8319C22.231 61.2108 21.9283 63.0718 20.7512 64.2265Z" fill="#F6D0E3"/>
<path d="M62.6123 17.7578H57.7132C57.7916 17.3205 57.8365 16.8721 57.8365 16.4125C57.8365 11.7824 54.0697 8.00439 49.4284 8.00439C44.7871 8.00439 41.0203 11.7824 41.0203 16.4125C41.0203 16.8721 41.0652 17.3205 41.1437 17.7578H35.4037C32.3208 17.7578 29.8096 20.269 29.8096 23.3631V29.1255C29.8096 30.1793 30.6616 31.0313 31.7154 31.0313H32.4665V45.9752C32.4665 47.2757 33.5203 48.3295 34.8208 48.3295H64.0921C65.3813 48.3295 66.4351 47.2757 66.4351 45.9752V31.0201C67.4217 30.9528 68.2064 30.1344 68.2064 29.1255V23.3631C68.2064 20.269 65.7064 17.7578 62.6123 17.7578ZM50.3813 11.4573C52.0854 11.7712 53.5203 13.0268 54.1369 14.6524C54.5629 15.7622 54.5517 16.7936 54.2827 17.7578H44.5741C44.4508 17.3317 44.3836 16.8721 44.3836 16.4125C44.3836 13.3183 47.175 10.8744 50.3813 11.4573ZM63.0719 44.9663H35.8297V31.0313H47.7468V34.8766C47.7468 35.8071 48.4979 36.5582 49.4284 36.5582C50.3589 36.5582 51.11 35.8071 51.11 34.8766V31.0313H63.0719V44.9663ZM64.8432 27.6681H33.1728V23.3631C33.1728 22.13 34.1706 21.121 35.4037 21.121H62.6123C63.8454 21.121 64.8432 22.13 64.8432 23.3631V27.6681Z" fill="#444545"/>
<path d="M63.0717 31.0315V44.9665H35.8296V31.0315H47.7466V34.8768C47.7466 35.8073 48.4978 36.5584 49.4282 36.5584C50.3587 36.5584 51.1099 35.8073 51.1099 34.8768V31.0315H63.0717Z" fill="#B9E3E5"/>
<path d="M64.8433 23.3632V27.6682H33.1729V23.3632C33.1729 22.1301 34.1706 21.1211 35.4038 21.1211H62.6123C63.8455 21.1211 64.8433 22.1301 64.8433 23.3632Z" fill="#76B9CE"/>
</g>
<defs>
<clipPath id="clip0_67_1015">
<rect width="79.7982" height="80" fill="white"/>
</clipPath>
</defs>
</svg>
